<?xml version="1.0" encoding="UTF-8" standalone="no"?>
<!-- Created with Inkscape (http://www.inkscape.org/) -->

<svg
   width="92.09671mm"
   height="99.006538mm"
   viewBox="0 0 92.09671 99.006535"
   version="1.1"
   id="svg5"
   sodipodi:docname="logo.svg"
   inkscape:version="1.1.1 (3bf5ae0d25, 2021-09-20)"
   xmlns:inkscape="http://www.inkscape.org/namespaces/inkscape"
   xmlns:sodipodi="http://sodipodi.sourceforge.net/DTD/sodipodi-0.dtd"
   xmlns="http://www.w3.org/2000/svg"
   xmlns:svg="http://www.w3.org/2000/svg">
  <sodipodi:namedview
     id="namedview7"
     pagecolor="#ffffff"
     bordercolor="#666666"
     borderopacity="1.0"
     inkscape:pageshadow="2"
     inkscape:pageopacity="0.0"
     inkscape:pagecheckerboard="0"
     inkscape:document-units="mm"
     showgrid="false"
     inkscape:zoom="1"
     inkscape:cx="200"
     inkscape:cy="204.5"
     inkscape:window-width="1920"
     inkscape:window-height="1016"
     inkscape:window-x="0"
     inkscape:window-y="27"
     inkscape:window-maximized="1"
     inkscape:current-layer="layer1"
     scale-x="1"
     fit-margin-top="1"
     fit-margin-left="1"
     fit-margin-right="1"
     fit-margin-bottom="1" />
  <defs
     id="defs2" />
  <g
     inkscape:label="Layer 1"
     inkscape:groupmode="layer"
     id="layer1"
     transform="translate(-53.330465,-90.670172)">
    <path
       style="display:inline;fill:#000000;stroke-width:0.112789"
       d="m 113.31166,188.58635 c -0.89948,-0.0357 -1.70067,-0.10697 -1.78042,-0.15833 -0.17941,-0.11555 -0.0952,-3.82985 0.0882,-3.89099 0.0623,-0.0207 0.11321,-0.10513 0.11321,-0.18749 0,-0.0824 0.15227,-0.27788 0.33837,-0.43448 0.33263,-0.27989 0.44102,-0.52485 0.23223,-0.52485 -0.0584,0 -0.1375,0.0507 -0.17584,0.11279 -0.123,0.19903 -0.25178,0.12063 -0.23158,-0.14099 0.0108,-0.13958 -0.0663,-0.43141 -0.17123,-0.64853 -0.10495,-0.21712 -0.32354,-0.8008 -0.48576,-1.29707 -0.88685,-2.71313 -6.92886,-20.45339 -6.99937,-20.55123 -0.009,-0.0131 -0.11639,0.002 -0.23775,0.0339 -0.21316,0.0556 -0.21821,0.13877 -0.14867,2.44867 0.0396,1.3151 0.1022,4.6671 0.13914,7.4489 l 0.0672,5.0578 -0.3507,0.3507 c -0.40316,0.40316 -0.40364,0.29457 0.0151,3.45744 0.18384,1.38874 0.20163,1.75892 0.0876,1.82307 -0.0787,0.0443 -0.29532,0.21186 -0.48142,0.37242 -0.30181,0.26038 -0.34446,0.27057 -0.39476,0.0943 -0.031,-0.10868 -0.1579,-0.19659 -0.28197,-0.19536 -0.12407,10e-4 -0.47935,-0.0316 -0.78952,-0.0729 -0.42228,-0.0562 -0.59588,-0.0349 -0.69109,0.085 -0.10729,0.1351 -0.13548,0.12822 -0.18053,-0.044 -0.0453,-0.1732 -0.2654,-0.22503 -1.451893,-0.34193 -0.769182,-0.0758 -1.603342,-0.13736 -1.853692,-0.13684 -0.350075,8.9e-4 -0.46043,-0.0446 -0.477908,-0.19645 -0.01248,-0.10856 -0.112194,-0.69563 -0.22155,-1.30462 l -0.198823,-1.10723 -0.845914,0.0533 c -0.465252,0.0293 -0.922046,0.0825 -1.015096,0.11824 -0.230178,0.0883 -0.427829,-0.34131 -1.005977,-2.18665 -0.530591,-1.69356 -2.76202,-8.65968 -3.558721,-11.10967 -0.473052,-1.45473 -0.498481,-1.59005 -0.322985,-1.71886 0.104771,-0.0769 0.168746,-0.16157 0.142166,-0.18815 -0.112571,-0.11257 -1.188628,0.22195 -1.327028,0.41255 -0.209611,0.28865 -0.43047,0.0836 -0.527299,-0.4895 l -0.07574,-0.44832 -0.456834,0.65215 c -0.346105,0.49408 -1.097699,2.03685 -1.100752,2.25948 -0.0017,0.12294 -0.242046,-0.0167 -0.338293,-0.19653 -0.175308,-0.32756 0.267175,-1.69553 0.75527,-2.33497 0.214275,-0.28072 0.648993,-1.04538 0.96604,-1.69925 0.555045,-1.14471 0.578801,-1.23324 0.639816,-2.38436 0.0581,-1.09611 0.09524,-1.25066 0.446741,-1.85895 0.210855,-0.36489 0.480805,-1.02471 0.599888,-1.46625 0.381157,-1.41327 0.390701,-4.04609 0.01917,-5.2867 -0.06625,-0.22122 0.246639,-0.40273 0.410967,-0.2384 0.322709,0.32271 0.637978,3.26251 0.473181,4.41228 -0.05558,0.3878 -0.08913,0.69233 -0.07455,0.67674 0.01458,-0.0156 0.221898,-0.2892 0.460705,-0.60801 0.238807,-0.31882 0.726035,-0.8199 1.082729,-1.11351 0.356693,-0.29361 0.648534,-0.5694 0.648534,-0.61287 0,-0.0435 0.260312,-0.29079 0.578471,-0.5496 0.686053,-0.55807 1.700299,-1.79956 2.024593,-2.4782 0.127189,-0.26616 0.452219,-0.75522 0.722295,-1.0868 0.485736,-0.59635 0.997103,-1.57019 1.142889,-2.17649 0.04143,-0.17224 0.172607,-0.50736 0.291541,-0.7447 0.28531,-0.56937 0.567108,-2.74293 0.477743,-3.68491 -0.06128,-0.64594 -0.550585,-2.2037 -1.013253,-3.2258 -0.294418,-0.65039 -0.923312,-2.35545 -1.00273,-2.71858 -0.04343,-0.19856 -0.04338,-0.59817 7.1e-5,-0.88802 0.07157,-0.47724 0.174333,-0.61889 1.088209,-1.5 1.213898,-1.17036 2.01728,-1.74407 3.496109,-2.49663 0.96087,-0.48898 1.24741,-0.58064 2.07827,-0.66486 0.8915,-0.0904 1.02215,-0.1376 1.74313,-0.63022 0.42867,-0.2929 0.7794,-0.57337 0.7794,-0.62327 0,-0.25249 1.07286,-0.58719 2.19438,-0.68457 1.55301,-0.13486 2.28428,-0.41205 2.89305,-1.09665 0.72243,-0.8124 0.92872,-1.36964 0.93847,-2.5349 0.005,-0.60244 -0.0401,-1.02244 -0.11521,-1.07149 -0.0679,-0.0444 -0.13213,-0.33132 -0.1427,-0.63765 -0.0218,-0.63233 -0.21075,-0.90759 -0.80529,-1.17314 -0.52344,-0.23379 -4.98769,-0.34419 -5.24609,-0.12974 -0.0907,0.0753 -0.23551,0.10975 -0.32183,0.0766 -0.0863,-0.0331 -0.35342,-0.0119 -0.59357,0.047 -0.24016,0.059 -0.5205,0.1273 -0.62299,0.1518 -0.10249,0.0245 -0.33156,0.11963 -0.50904,0.21141 -0.52612,0.27206 -1.50976,0.51182 -2.29351,0.55903 -0.54965,0.0331 -0.996227,0.16096 -1.784428,0.51088 -0.578214,0.25669 -1.364914,0.52436 -1.748222,0.59482 -1.320087,0.24266 -2.381458,0.742 -3.234662,1.52182 -0.155084,0.14174 -0.578966,0.41342 -0.941959,0.60373 -0.58357,0.30595 -0.76918,0.34601 -1.60306,0.34601 -0.677117,0 -1.104466,0.0636 -1.515367,0.22558 -0.772724,0.30458 -1.073564,0.28602 -2.106262,-0.12993 -1.254337,-0.50523 -2.787385,-0.88481 -3.583603,-0.8873 -0.799097,-0.003 -2.568594,-0.3667 -4.630284,-0.953 -1.318363,-0.37491 -1.642578,-0.42313 -3.214472,-0.47801 -1.418207,-0.0495 -1.863867,-0.0265 -2.360833,0.1221 -1.014786,0.3034 -1.95403,0.24054 -3.410381,-0.22821 -1.47056,-0.47333 -2.208063,-0.52362 -3.168774,-0.21606 -0.79757,0.25533 -1.556462,0.19521 -2.846412,-0.22551 -0.782933,-0.25535 -1.029144,-0.28609 -1.861011,-0.23232 -1.432979,0.0926 -1.648413,0.17379 -2.803439,1.05642 l -0.331248,0.25312 -0.265469,-0.22396 -0.26547,-0.22397 0.39476,-0.34273 c 0.571319,-0.49602 1.101261,-0.74988 1.857106,-0.8896 1.141154,-0.21096 2.22659,-0.1558 3.127369,0.15891 0.941605,0.32898 1.898298,0.36654 2.87252,0.11279 0.902965,-0.23519 1.328552,-0.21362 2.478733,0.12563 0.549735,0.16215 1.075649,0.31675 1.1687,0.34355 0.176862,0.051 0.32612,-0.17344 1.662452,-2.49937 l 0.712811,-1.24068 1.321913,0.0349 c 1.062105,0.0281 1.466,-0.009 2.055038,-0.18626 0.403219,-0.12167 1.798977,-0.53246 3.101684,-0.91286 4.918548,-1.43628 4.7954,-1.39302 4.596976,-1.61456 -0.09724,-0.10855 -0.242061,-0.19738 -0.321837,-0.19738 -0.224888,0 -0.281619,-0.1675 -0.334528,-0.98771 -0.04319,-0.66954 -0.103191,-1.22119 -0.217667,-2.00118 -0.01821,-0.12407 -0.06615,-0.47935 -0.106535,-0.78952 -0.07801,-0.59917 -0.149369,-1.0151 -0.174146,-1.0151 -0.0083,0 -0.03557,-0.22839 -0.06066,-0.50755 -0.02509,-0.27915 -0.07501,-0.63443 -0.110934,-0.78952 -0.03593,-0.15508 -0.08777,-0.66263 -0.115208,-1.12788 -0.07004,-1.18768 -0.167423,-2.16256 -0.240775,-2.41043 -0.03435,-0.11607 -0.08233,-0.49673 -0.106609,-0.84591 -0.04263,-0.61289 -0.07525,-0.91017 -0.205822,-1.87554 -0.07683,-0.56802 -0.184672,-1.45992 -0.238656,-1.9738 -0.02281,-0.21711 -0.117309,-1.02919 -0.209999,-1.80461 -0.09269,-0.77542 -0.196152,-1.739766 -0.229915,-2.142985 -0.03376,-0.403219 -0.107339,-1.246921 -0.163501,-1.874894 -0.09624,-1.076094 -0.03032,-2.037896 0.122693,-1.790113 0.169945,0.275201 0.603673,3.306261 1.105464,7.725392 0.186663,1.64389 0.438117,3.81826 0.558786,4.83192 0.120669,1.01367 0.248627,2.2064 0.284352,2.65053 0.03572,0.44413 0.166331,1.77185 0.290235,2.95049 0.123905,1.17864 0.252882,2.40636 0.286616,2.72826 0.05313,0.50702 0.109381,0.61437 0.420637,0.80276 0.197617,0.1196 1.75452,1.2663 3.459785,2.5482 1.705265,1.2819 3.117998,2.27819 3.139407,2.21397 0.04448,-0.13345 -0.354949,-3.96507 -1.152601,-11.05651 -0.156996,-1.39576 -0.392275,-3.55284 -0.522842,-4.79351 -0.130569,-1.24067 -0.276327,-2.57517 -0.323908,-2.96555 -0.04758,-0.39038 -0.04414,-0.73597 0.0077,-0.76798 0.179509,-0.11095 0.093,-0.27046 -0.146682,-0.27046 -0.246859,0 -0.752699,-0.43458 -3.872837,-3.327265 -0.936762,-0.868471 -2.0456,-1.881363 -2.464085,-2.250869 -0.418485,-0.369506 -0.790097,-0.788233 -0.825806,-0.930505 -0.03571,-0.142272 -0.110175,-0.258676 -0.165485,-0.258676 -0.247208,0 -0.06864,-0.326962 0.209608,-0.383804 0.64828,-0.132433 5.611173,-0.940958 7.641422,-1.244894 6.624034,-0.991646 9.023086,-1.352403 10.884097,-1.636695 0.83745,-0.127931 2.03019,-0.30856 2.65053,-0.401396 0.62034,-0.09284 1.57011,-0.23622 2.11061,-0.318631 0.5405,-0.08241 1.02539,-0.120301 1.07754,-0.0842 0.0521,0.0361 0.14934,0.294029 0.21598,0.57318 0.0666,0.279152 0.30858,1.192739 0.53766,2.030194 0.22908,0.837454 0.51052,1.877928 0.62541,2.312164 0.3687,1.39346 0.60544,2.142102 0.68846,2.177102 0.0445,0.01877 0.18931,0.128109 0.32176,0.242986 0.21793,0.189007 0.30028,0.67369 0.86616,5.097749 0.34393,2.6889 0.66994,5.31435 0.72445,5.83434 0.0545,0.52 0.12062,0.96695 0.14689,0.99323 0.0648,0.0648 1.27387,-0.25171 2.44129,-0.63918 0.52728,-0.175 1.66927,-0.50713 2.53774,-0.73805 0.86847,-0.23093 1.7313,-0.48371 1.9174,-0.56173 0.1861,-0.078 0.60423,-0.22796 0.92918,-0.33319 0.32495,-0.10523 0.61978,-0.23819 0.65519,-0.29548 0.12334,-0.19958 0.39948,-0.10163 0.77655,0.27543 0.36941,0.36941 0.39581,0.37708 0.98314,0.28547 0.33195,-0.0518 1.441,-0.22316 2.46455,-0.38086 1.02356,-0.1577 3.45542,-0.53994 5.40414,-0.84941 1.94872,-0.30948 3.65369,-0.56268 3.78883,-0.56268 0.16038,0 0.472,0.25459 0.89734,0.73312 0.64722,0.72816 0.85018,0.86806 0.85018,0.58607 0,-0.13615 0.46187,-0.61854 0.93274,-0.97418 0.21727,-0.16411 1.7265,-0.44111 2.91665,-0.53532 1.02014,-0.0808 1.84069,0.16578 2.39425,0.71933 0.30791,0.30791 0.5249,0.4263 0.79877,0.43581 0.52015,0.0181 2.0345,0.75775 2.26192,1.10483 0.19387,0.29589 0.4929,1.23496 0.58004,1.82154 0.0728,0.49022 0.29044,1.21839 0.4126,1.38056 0.058,0.0769 0.12906,0.4576 0.15802,0.84592 0.0516,0.6922 0.0417,0.72258 -0.50503,1.55193 -0.30671,0.46526 -0.62223,1.04894 -0.70114,1.29707 -0.21943,0.68997 -0.53179,1.25683 -0.87421,1.58649 -0.4241,0.40829 -1.27449,0.95125 -1.48985,0.95125 -0.0972,0 -0.22685,0.1142 -0.28809,0.25378 -0.0678,0.15452 -0.4949,0.45229 -1.092,0.76132 -0.53937,0.27915 -1.10499,0.59869 -1.25694,0.71008 -0.37811,0.27719 -1.00716,0.36805 -1.21578,0.1756 -0.091,-0.0839 -0.26047,-0.20615 -0.37671,-0.27165 -0.11623,-0.0655 -0.29694,-0.3817 -0.40157,-0.70266 -0.10463,-0.32095 -0.4049,-0.90179 -0.66728,-1.29075 -0.44673,-0.66226 -0.47246,-0.74249 -0.40491,-1.26246 0.0783,-0.60248 0.22973,-0.96739 0.40152,-0.96739 0.14096,0 0.13716,0.11637 -0.0234,0.71647 -0.1289,0.48197 -0.12098,0.51088 0.32207,1.17434 0.24983,0.37412 0.51072,0.90457 0.57977,1.17878 0.17406,0.69124 0.78206,1.14018 1.30121,0.96079 0.19474,-0.0673 0.40482,-0.19013 0.46686,-0.27297 0.062,-0.0828 0.47165,-0.29011 0.91026,-0.46057 1.18753,-0.46154 1.33784,-0.59002 1.39327,-1.19102 0.005,-0.0515 0.14879,-0.0628 0.3201,-0.0251 0.71041,0.15603 1.96925,-1.09685 2.13338,-2.1233 0.0397,-0.24829 0.30898,-0.79703 0.6174,-1.25816 0.64306,-0.96145 0.69065,-1.35571 0.26501,-2.19567 -0.15508,-0.30604 -0.28197,-0.67215 -0.28197,-0.81358 0,-0.32045 -0.52186,-1.88452 -0.71245,-2.13528 -0.0776,-0.10205 -0.42543,-0.33941 -0.77303,-0.52747 l -0.63201,-0.34193 0.22568,0.58387 c 0.12412,0.32112 0.26454,0.83764 0.31205,1.14781 0.0815,0.53227 -0.0178,1.61715 -0.17061,1.86448 -0.16435,0.26592 -0.27982,-0.0724 -0.27982,-0.81989 0,-1.10222 -0.35672,-2.15108 -0.83303,-2.44937 -0.19319,-0.12098 -0.49274,-0.3997 -0.66567,-0.61937 -0.17293,-0.21968 -0.47746,-0.48379 -0.67673,-0.58692 -0.56261,-0.29116 -1.91677,-0.38651 -2.82284,-0.19875 -0.42278,0.0876 -0.91898,0.15929 -1.10265,0.15929 -0.24605,0 -0.46928,0.13531 -0.84795,0.51399 l -0.51399,0.51399 0.54515,0.58478 c 0.29984,0.32163 0.5919,0.58519 0.64903,0.5857 0.0571,4.4e-4 0.17278,0.30437 0.25702,0.67525 0.0842,0.37089 0.20244,0.72363 0.26269,0.78388 0.0603,0.0603 0.10954,0.21631 0.10954,0.3468 0,0.13049 0.17428,0.75477 0.3873,1.3873 0.3552,1.05473 0.37,1.15004 0.17858,1.15004 -0.11479,0 -0.23446,-0.0634 -0.26592,-0.14098 -0.0415,-0.10226 -0.0828,-0.10621 -0.15039,-0.0144 -0.0527,0.0716 -1.78202,0.33024 -3.98438,0.59583 -4.26814,0.51471 -4.43336,0.5402 -4.35224,0.67145 0.0729,0.11788 0.40465,5.95277 0.40465,7.11613 0,0.72143 -0.0407,0.93893 -0.20585,1.10083 -0.15509,0.15203 -0.29435,0.75797 -0.56482,2.45755 -0.19745,1.24067 -0.35859,2.53746 -0.3581,2.88175 4.4e-4,0.34429 -0.0514,0.67822 -0.11523,0.74208 -0.0639,0.0639 -0.1601,0.49274 -0.21387,0.95307 -0.13604,1.16458 -0.30095,1.49283 -0.53853,1.07191 -0.0496,-0.0879 -0.30095,-0.32898 -0.55854,-0.53575 -1.12022,-0.89918 -5.0176,-4.27447 -5.25192,-4.54836 -0.25936,-0.30318 -0.25393,-0.23886 0.14144,1.67483 0.18842,0.91196 0.33241,1.72011 0.31999,1.79588 -0.0124,0.0758 0.008,0.26465 0.0445,0.41974 0.10667,0.44838 0.37294,1.89728 1.20222,6.54173 0.42644,2.3883 0.94048,5.25595 1.14232,6.37256 0.20184,1.1166 0.40556,2.33472 0.45271,2.70692 0.0472,0.3722 0.1934,1.25451 0.325,1.9607 0.31735,1.70304 0.38524,3.01077 0.23627,4.5516 -0.1376,1.42319 -0.1786,3.38792 -0.0791,3.79132 0.0496,0.20099 0.0117,0.27949 -0.15589,0.32332 -0.13985,0.0366 -0.22135,0.15441 -0.22135,0.32004 0,0.14419 -0.0508,0.29353 -0.11278,0.33187 -0.062,0.0383 -0.11279,0.0175 -0.11279,-0.0462 0,-0.0637 -0.0635,-0.0917 -0.14099,-0.062 -0.0984,0.0376 -0.12855,0.26662 -0.0998,0.75778 0.0515,0.88094 -0.1576,2.72304 -0.72009,6.34335 -0.2493,1.60451 -0.35152,2.91104 -0.37503,4.79351 -0.0207,1.65829 -0.0585,2.18516 -0.36791,5.13188 -0.0717,0.68237 -0.1274,1.44369 -0.1239,1.69183 0.0198,1.40001 -0.68931,7.16397 -0.86028,6.99299 -0.0306,-0.0306 -0.29992,0.32561 -0.59848,0.79158 -0.58783,0.9175 -0.81886,1.06933 -1.62715,1.06933 h -0.5002 l -0.0172,0.81771 c -0.009,0.44974 -0.029,0.86847 -0.0434,0.93051 -0.0144,0.062 -0.0321,0.42803 -0.0392,0.81332 -0.0105,0.56506 -0.0607,0.74501 -0.25986,0.9305 -0.27117,0.25265 -0.79096,0.26749 -4.37748,0.12506 z m 3.20383,-0.70814 c -0.10473,-0.20417 -0.27746,-0.48298 -0.38383,-0.61958 l -0.1934,-0.24835 -0.1391,0.46428 c -0.0901,0.3006 -0.16991,0.41443 -0.22647,0.3229 -0.0673,-0.10896 -0.20026,-0.0868 -0.57983,0.0966 l -0.49246,0.23793 -0.1971,-0.25609 c -0.1084,-0.14085 -0.19823,-0.28645 -0.19961,-0.32356 -0.001,-0.0371 -0.19733,-0.14401 -0.43544,-0.23755 -0.42235,-0.1659 -0.44233,-0.16231 -0.81771,0.14725 -0.21164,0.17452 -0.52679,0.34943 -0.70035,0.38868 -0.24374,0.0551 -0.28773,0.1049 -0.19326,0.21871 0.0925,0.11149 0.68539,0.15133 2.43564,0.1637 l 2.31336,0.0163 z m 0.96266,-1.38632 0.0152,-1.52264 h -0.39904 -0.39903 l -0.0198,0.56394 c -0.0109,0.31017 -0.0286,0.72712 -0.0395,0.92656 -0.0133,0.24356 0.10546,0.55834 0.36157,0.95871 0.20972,0.32784 0.40019,0.59608 0.42327,0.59608 0.0231,0 0.0488,-0.68519 0.0572,-1.52265 z m -4.76406,0.14625 c 0.15034,-0.19031 0.28246,-1.66889 0.14914,-1.66889 -0.0559,0 -0.092,-0.13958 -0.0803,-0.31017 0.0239,-0.34969 -0.0957,-0.38798 -0.44053,-0.14099 -0.20783,0.14887 -0.24415,0.32181 -0.30244,1.44023 l -0.0663,1.27106 0.31246,-0.2225 c 0.17186,-0.12237 0.36445,-0.2883 0.42798,-0.36874 z m 3.3045,-0.48258 c 0,-0.26476 0.0317,-0.63999 0.0705,-0.83385 l 0.0705,-0.35246 h -1.24966 -1.24966 l -0.0592,0.36656 c -0.0927,0.57448 -0.0938,0.79811 -0.005,1.07484 0.0791,0.24723 0.12734,0.25653 1.25254,0.24171 l 1.17025,-0.0154 z m 3.37123,-2.30951 c 0.25497,-0.36348 0.46358,-0.69088 0.46358,-0.72755 0,-0.0367 -1.55226,-0.0667 -3.44945,-0.0667 -1.8972,0 -3.43253,0.0395 -3.41185,0.0877 0.0207,0.0483 0.13592,0.35134 0.2561,0.67352 l 0.2185,0.58577 1.41693,0.0337 c 0.77931,0.0185 2.00771,0.0429 2.72977,0.054 l 1.31283,0.0203 z m 0.81994,-1.64012 c 0.0409,-0.31017 0.12741,-0.9446 0.19223,-1.40986 0.0648,-0.46525 0.17106,-1.63261 0.23611,-2.59413 0.17334,-2.56226 0.2236,-3.23659 0.39932,-5.35746 0.0874,-1.05457 0.19087,-2.95788 0.23001,-4.22957 0.0842,-2.73462 0.17679,-3.81965 0.50071,-5.865 0.35137,-2.21873 0.56442,-3.92883 0.56558,-4.53974 0.001,-0.59754 -0.0384,-0.6172 -0.84489,-0.42011 -0.24813,0.0606 -0.67955,0.13849 -0.9587,0.17302 -0.45311,0.056 -2.53582,0.41195 -3.27087,0.55895 -0.15508,0.031 -1.32244,0.23601 -2.59413,0.45554 -1.27169,0.21954 -2.66745,0.47176 -3.10169,0.5605 -0.85796,0.17532 -6.47567,1.18165 -6.59641,1.18165 -0.0809,0 0.2306,0.94727 2.2069,6.71091 0.72321,2.10915 1.46615,4.31699 1.65098,4.90631 0.44879,1.43092 0.99164,3.04694 2.2818,6.79277 0.59239,1.71994 1.07707,3.22462 1.07707,3.34374 0,0.20181 0.10169,0.21775 1.49028,0.23354 0.81965,0.009 1.50089,0.0276 1.51388,0.0405 0.013,0.013 1.13146,0.0233 2.48551,0.023 l 2.46192,-4.4e-4 z m -17.67893,-1.49268 c -0.17211,-0.29369 -0.36095,-0.58554 -0.41964,-0.64854 -0.0661,-0.071 -0.77859,-0.10186 -1.87326,-0.0812 -1.602146,0.0302 -1.779179,0.0536 -1.902376,0.25087 -0.124458,0.19929 -0.0863,0.23128 0.455443,0.38188 0.736687,0.2048 2.642713,0.50865 3.844673,0.61291 0.18537,0.0161 0.17392,-0.0403 -0.10484,-0.51593 z m 0.42123,-1.83978 -0.20023,-1.51745 -0.19609,0.37211 c -0.29601,0.56171 -0.20339,1.51735 0.2121,2.18848 0.1806,0.29172 0.34098,0.51778 0.35641,0.50235 0.0154,-0.0154 -0.0621,-0.71089 -0.17219,-1.54549 z m -4.887079,0.1511 c -0.02855,-0.24886 -0.101358,-0.32259 -0.346332,-0.35077 -0.35186,-0.0405 -0.356349,-0.0216 -0.184729,0.77868 l 0.125444,0.58491 0.220888,-0.34887 c 0.123069,-0.19437 0.204876,-0.48841 0.184729,-0.66395 z m 3.720549,-0.0574 -0.0347,-0.47546 -1.12721,0.0333 c -0.61996,0.0183 -1.190956,0.0862 -1.268873,0.1509 -0.0993,0.0824 -0.141665,0.0799 -0.141665,-0.008 0,-0.12691 -0.385404,-0.11786 -0.515373,0.0121 -0.03854,0.0385 -0.03579,0.22593 0.006,0.41647 l 0.07609,0.34643 h 1.520171 1.52017 l -0.0347,-0.47546 z m -2.008488,-0.93822 c 1.085588,-0.0414 1.993068,-0.0937 2.016628,-0.11618 0.0525,-0.0501 0.0393,-1.04212 -0.0434,-3.26365 -0.0346,-0.93051 -0.13617,-3.64589 -0.22558,-6.03419 -0.0894,-2.38829 -0.17661,-4.97889 -0.19379,-5.75687 l -0.0312,-1.41452 -2.932499,0.53983 c -5.41726,0.99726 -7.78185,1.46134 -7.868479,1.54429 -0.04734,0.0453 -0.03787,0.23148 0.02105,0.41367 0.05892,0.18218 0.714544,2.20917 1.45695,4.50442 0.742406,2.29525 1.735342,5.36615 2.206525,6.82423 0.471185,1.45807 0.856668,2.72694 0.856633,2.81971 -5.4e-5,0.14471 0.196194,0.15772 1.381659,0.0916 0.759946,-0.0424 2.269931,-0.11093 3.355523,-0.15237 z m 2.819708,-1.42275 c 0,-0.0639 0.23137,-0.34106 0.51415,-0.61589 l 0.51415,-0.49969 -0.0599,-2.11258 c -0.0329,-1.16192 -0.0874,-3.81286 -0.12104,-5.89099 -0.0336,-2.07813 -0.0909,-4.36679 -0.12724,-5.0859 l -0.0661,-1.30748 -0.68389,0.1232 -0.68388,0.1232 0.0192,1.52265 c 0.0106,0.83745 0.0448,2.25859 0.0761,3.15808 0.23627,6.79425 0.30764,8.66392 0.34017,8.91029 0.0205,0.15509 0.0407,0.65294 0.045,1.10635 0.005,0.51905 0.0495,0.79855 0.12056,0.75466 0.062,-0.0383 0.11278,-0.12199 0.11278,-0.1859 z M 91.411664,162.81184 c 8.604486,-1.59053 10.345296,-1.91438 12.143796,-2.25917 3.1701,-0.60774 8.274,-1.56938 11.67361,-2.19946 4.31449,-0.79963 7.02013,-1.35143 7.158,-1.45981 0.0643,-0.0505 0.29714,-0.12428 0.51748,-0.16389 l 0.40062,-0.072 -0.0211,-0.8168 c -0.0124,-0.48113 -0.53205,-3.52831 -1.26453,-7.41492 -0.68392,-3.62897 -1.30455,-7.00417 -1.3792,-7.50044 -0.0746,-0.49627 -0.35489,-2.12042 -0.62277,-3.60923 -0.26788,-1.48881 -0.51117,-2.85919 -0.54064,-3.04529 -0.0295,-0.1861 -0.10481,-0.56676 -0.16743,-0.84591 -0.0626,-0.27915 -0.14618,-0.76133 -0.1857,-1.07149 -0.0638,-0.50043 -0.32321,-2.08036 -0.44822,-2.72948 -0.0253,-0.13146 -0.0801,-0.48469 -0.12175,-0.78497 -0.0417,-0.30027 -0.22307,-1.14583 -0.40319,-1.87903 -0.18012,-0.73321 -0.32749,-1.52929 -0.32749,-1.76908 0,-0.23979 -0.0577,-0.57887 -0.12813,-0.7535 -0.0705,-0.17463 -0.12084,-0.45151 -0.11194,-0.61529 0.0227,-0.41819 -0.19287,-0.462 -1.32091,-0.2684 -0.53722,0.0922 -1.48431,0.24651 -2.10465,0.3429 -0.62034,0.0964 -1.38166,0.22945 -1.69183,0.29568 l -0.56394,0.12041 -0.004,1.20066 c -0.003,1.10766 -0.0288,1.24667 -0.32905,1.79456 -0.85715,1.56392 -1.70453,2.07814 -3.67834,2.23213 -1.13498,0.0886 -1.62356,0.22927 -1.99347,0.57416 -0.94936,0.88513 -1.98041,1.39333 -2.8268,1.39333 -0.56402,0 -0.82995,0.0817 -1.78091,0.54697 -1.570244,0.7683 -2.203594,1.20532 -3.430054,2.36678 l -1.071491,1.0147 0.0091,0.82729 c 0.0079,0.72654 0.08047,1.00198 0.595323,2.26162 1.114209,2.726 1.369444,3.55057 1.369093,4.42304 -4.44e-4,1.07641 -0.209862,2.72625 -0.416176,3.2785 -0.0927,0.24814 -0.259454,0.70776 -0.370568,1.02138 -0.316354,0.89293 -0.785963,1.75909 -1.209244,2.23035 -0.213419,0.23761 -0.48031,0.64729 -0.59309,0.91039 -0.233161,0.54395 -1.405571,2.1378 -1.856289,2.52356 -1.398198,1.19672 -2.383554,2.16426 -2.780712,2.73045 -0.447456,0.63789 -0.770961,0.88082 -0.991475,0.74453 -0.05451,-0.0337 -0.185639,0.21382 -0.291387,0.55003 -0.10575,0.33619 -0.346265,0.84376 -0.534478,1.12791 -0.31247,0.47175 -0.348978,0.62727 -0.420124,1.78976 -0.06909,1.12891 -0.118712,1.35149 -0.438102,1.96518 -0.229613,0.44119 -0.317068,0.71873 -0.241243,0.76559 0.06542,0.0404 0.165312,0.19547 0.221983,0.34453 0.05667,0.14906 0.184556,0.27102 0.284185,0.27102 0.09963,0 1.128672,-0.17516 2.28676,-0.38923 z m 31.774346,-14.77393 c -0.35353,-1.86981 -0.54474,-2.8983 -1.35379,-7.28176 -0.15457,-0.83745 -0.38428,-2.18246 -0.51047,-2.9889 -0.12619,-0.80643 -0.27751,-1.7454 -0.33627,-2.08658 -0.0588,-0.34119 -0.18934,-1.10251 -0.29016,-1.69183 -0.10083,-0.58932 -0.27909,-1.57904 -0.39613,-2.19938 -0.4967,-2.63248 -0.91168,-5.28894 -0.85818,-5.49352 0.0603,-0.23055 -0.52322,-0.86923 -0.80009,-0.87572 -0.19144,-0.004 -0.17925,0.16531 0.0946,1.31759 0.12955,0.54519 0.25825,1.14353 0.286,1.32963 0.0277,0.1861 0.10371,0.59214 0.16882,0.90231 0.0651,0.31016 0.14195,0.7162 0.17077,0.9023 0.10512,0.67879 0.84744,4.9859 1.0011,5.80862 0.0869,0.46525 0.392,2.21629 0.67801,3.8912 0.28602,1.67491 0.84264,4.82171 1.23694,6.99289 0.3943,2.17118 0.78229,4.32826 0.8622,4.79351 l 0.14528,0.84591 0.14327,-1.06458 c 0.13971,-1.03813 0.1337,-1.11522 -0.24188,-3.10169 z m 2.5321,-19.9775 c -0.18366,-1.48494 -0.35744,-2.80141 -0.3862,-2.92547 -0.0857,-0.36984 -0.38692,-2.78642 -0.63262,-5.07549 -0.12651,-1.17864 -0.2408,-2.23104 -0.25398,-2.33867 -0.0218,-0.17797 -0.62582,-0.75311 -2.32461,-2.21345 -0.54633,-0.46965 -1.74105,-1.52665 -3.33775,-2.95301 -0.3096,-0.27657 -0.75365,-0.69318 -0.98678,-0.92581 -0.23313,-0.23262 -0.48145,-0.42295 -0.55184,-0.42295 -0.093,0 -0.10824,0.47008 -0.0558,1.72002 0.11863,2.82648 0.30556,6.32621 0.35286,6.60631 0.0243,0.14407 0.0533,0.82892 0.0643,1.52188 0.0221,1.38598 0.0533,1.55608 0.2704,1.47276 0.10443,-0.04 0.18342,0.15259 0.27264,0.6649 0.0691,0.39672 0.12561,0.8006 0.12561,0.8975 0,0.17078 0.91168,1.03638 2.53774,2.40949 2.52332,2.1308 5.18035,4.32146 5.20796,4.29386 0.0176,-0.0176 -0.1183,-1.24692 -0.30195,-2.73187 z m 1.19239,-2.19235 c 0.16281,-1.14762 0.34537,-2.14678 0.4057,-2.22036 0.0716,-0.0873 0.0673,-0.21302 -0.0125,-0.36199 -0.0672,-0.12552 -0.11197,-0.26834 -0.0995,-0.31738 0.0254,-0.10027 -0.15097,-5.42848 -0.1971,-5.95417 -0.0163,-0.1861 -0.0338,-0.55596 -0.0389,-0.82191 l -0.009,-0.48355 -0.90829,0.9347 -0.90831,0.93471 0.066,1.07149 c 0.0573,0.92967 0.42243,4.48542 0.56174,5.47024 0.0877,0.62011 0.49943,3.7125 0.58563,4.39875 l 0.085,0.67673 0.0868,-0.62033 c 0.0477,-0.34119 0.22001,-1.55931 0.38281,-2.70693 z m -37.067365,0.84743 c 0.413914,-0.11072 0.89446,-0.16626 1.120735,-0.12954 0.636424,0.10328 1.256915,-0.12411 2.159825,-0.79152 0.464606,-0.34341 1.073133,-0.75454 1.352285,-0.91361 0.279151,-0.15908 0.564453,-0.35806 0.634,-0.44219 0.07036,-0.0851 0.420572,-0.17325 0.789519,-0.1987 0.854125,-0.0589 1.508982,-0.18391 1.508982,-0.28802 0,-0.0451 0.266465,-0.22226 0.59214,-0.39367 0.678165,-0.35693 2.402869,-0.73025 3.322879,-0.71926 0.37293,0.004 0.65881,-0.0473 0.70886,-0.12826 0.0461,-0.0746 1.11828,-0.3281 2.38253,-0.56322 1.9767,-0.36762 2.38553,-0.41232 2.91898,-0.31911 0.34119,0.0596 0.88752,0.10229 1.21408,0.0948 1.31014,-0.0299 2.66249,0.65763 3.03168,1.54123 0.0858,0.20538 0.21879,0.37371 0.29549,0.37408 0.32966,0.002 4.89079,-0.70982 5.12716,-0.79969 0.22417,-0.0852 0.25268,-0.15805 0.20526,-0.52409 -0.0303,-0.23381 -0.10905,-1.54172 -0.175,-2.90646 -0.066,-1.36474 -0.16691,-3.26805 -0.2243,-4.22957 -0.0574,-0.96152 -0.13906,-2.60096 -0.18146,-3.64319 -0.0564,-1.38757 -0.11285,-1.88126 -0.21063,-1.84374 -0.0734,0.0282 -1.46633,0.42199 -3.09533,0.87512 l -2.9618,0.82387 0.0654,0.5687 c 0.036,0.31279 0.27361,2.2582 0.52806,4.32314 0.25446,2.06494 0.43416,3.82867 0.39935,3.9194 -0.0348,0.0907 -0.17565,0.16497 -0.31296,0.16497 -0.1373,0 -4.16121,0.73331 -8.94202,1.62958 -4.780819,0.89627 -8.946165,1.66095 -9.256333,1.69928 -0.310169,0.0383 -0.644242,0.0924 -0.742385,0.12023 -0.157964,0.0447 -0.437367,-0.16633 -1.291775,-0.97584 -0.126249,-0.11961 -0.267665,-0.21748 -0.314259,-0.21748 -0.113737,0 -1.526857,-1.05965 -1.882368,-1.41153 -0.155754,-0.15416 -0.346084,-0.28029 -0.422956,-0.28029 -0.07687,0 -0.139769,-0.0524 -0.139769,-0.11633 0,-0.064 -0.08882,-0.14868 -0.19738,-0.18821 -0.108559,-0.0395 -0.357402,-0.2029 -0.552984,-0.36303 -0.784332,-0.64214 -1.01091,-0.80475 -1.309351,-0.93967 -0.171321,-0.0775 -0.337961,-0.22423 -0.370313,-0.32616 -0.08496,-0.26769 -0.656541,-0.48137 -0.916081,-0.34247 -0.20197,0.10809 -0.480269,0.19093 -2.518894,0.74978 -1.658822,0.45474 -3.671231,1.06054 -4.013308,1.20813 -0.29685,0.12808 -0.196605,0.14909 1.024413,0.21467 0.744404,0.04 1.96252,0.0801 2.706924,0.0892 1.555923,0.019 2.208679,0.10341 2.187512,0.28283 -0.0403,0.34159 0.01151,0.45342 0.14721,0.31773 0.228975,-0.22898 0.385173,-0.15433 0.71981,0.344 0.17704,0.26364 0.9072,1.28355 1.622575,2.26647 0.715376,0.98291 1.402194,1.9339 1.526261,2.11331 0.124068,0.1794 0.289021,0.32685 0.366563,0.32766 0.07754,8.9e-4 0.140986,0.0581 0.140986,0.12742 0,0.13585 0.106845,0.12017 1.232157,-0.18082 z M 87.0721,126.40381 c -0.04727,-0.0775 -0.754971,-1.03617 -1.572677,-2.1303 l -1.486736,-1.98931 -0.749446,1.69464 c -0.412194,0.93206 -0.73121,1.71288 -0.708922,1.73516 0.02229,0.0223 0.620143,0.091 1.328566,0.15277 1.157214,0.10083 2.711033,0.42799 2.891926,0.60888 0.133264,0.13326 0.385202,0.0724 0.297289,-0.0718 z m -5.288102,-0.9922 c -0.04014,-0.0649 0.04036,-0.35678 0.178886,-0.64853 0.138528,-0.29175 0.470174,-1.0489 0.736993,-1.68256 l 0.485125,-1.15211 -0.360499,-0.056 c -0.198275,-0.0308 -1.299464,-0.0857 -2.447087,-0.12195 -5.002839,-0.15804 -6.198888,-0.22061 -6.665392,-0.34867 -0.171272,-0.047 -0.523656,0.43631 -1.200508,1.6466 -0.121421,0.21712 -0.380705,0.65415 -0.576186,0.97118 -0.195479,0.31703 -0.355418,0.60887 -0.355418,0.64853 0,0.13674 1.040637,0.0717 1.731942,-0.10828 0.554536,-0.14436 1.087408,-0.16951 2.66681,-0.12588 1.939366,0.0536 2.004297,0.0635 3.722021,0.56882 1.810286,0.53255 2.207977,0.6106 2.083313,0.40889 z m 11.590003,-2.42438 c 0.513038,-0.0957 1.440344,-0.27126 2.060681,-0.39022 0.620337,-0.11897 1.787698,-0.32139 2.594136,-0.44983 1.408759,-0.22438 7.768222,-1.29601 9.756212,-1.64403 0.52728,-0.0923 1.38087,-0.22893 1.89687,-0.3036 l 0.93818,-0.13577 -0.0621,-0.34053 c -0.0342,-0.18729 -0.14172,-1.07647 -0.23899,-1.97596 -0.0973,-0.89949 -0.37969,-3.25959 -0.62761,-5.24467 -0.50228,-4.02194 -1.31942,-10.81694 -1.42044,-11.81189 -0.0503,-0.49574 -0.11441,-0.66132 -0.27572,-0.712525 -0.11559,-0.03669 -0.21016,-0.130498 -0.21016,-0.208471 0,-0.185017 -0.45452,-0.121469 -10.376549,1.450806 -0.961522,0.15237 -1.976619,0.30754 -2.25577,0.34483 -0.279152,0.0373 -1.116606,0.16185 -1.86101,0.27679 -0.744405,0.11494 -1.950295,0.2987 -2.679757,0.40834 -0.729463,0.10965 -1.276477,0.23015 -1.21559,0.26778 0.06089,0.0376 0.164677,0.57384 0.23064,1.19157 0.06596,0.61774 0.220019,2.03674 0.342347,3.15335 0.241749,2.20669 0.409589,3.8218 0.498134,4.79351 0.06641,0.72878 0.915649,8.64283 1.077177,10.03818 0.06104,0.52728 0.111122,1.02378 0.111297,1.10332 3.39e-4,0.14039 0.365403,0.34129 0.646561,0.35578 0.07628,0.004 0.558453,-0.0711 1.071491,-0.16676 z m 2.455441,-8.66688 c -0.341186,-0.0719 -0.619702,-0.18042 -0.618925,-0.24111 8.88e-4,-0.0607 0.09618,-0.58131 0.212002,-1.15691 0.283712,-1.40991 0.213335,-2.40054 -0.25277,-3.55811 -0.195471,-0.48545 -0.355404,-0.92412 -0.355404,-0.97483 0,-0.18303 0.34361,-0.21693 1.009617,-0.0996 0.656847,0.1157 0.699253,0.10798 1.314626,-0.23932 0.996762,-0.56253 1.325576,-0.37498 1.468062,0.83738 0.06941,0.59057 0.05676,0.64328 -0.168565,0.7022 l -0.24361,0.0637 0.268041,0.26804 c 0.20401,0.20401 0.283237,0.43563 0.331652,0.96957 0.03499,0.38584 0.03908,0.74127 0.0091,0.78983 -0.03002,0.0486 -0.2546,0.0883 -0.499071,0.0883 -0.376922,0 -0.444498,0.0362 -0.444498,0.2378 0,0.19357 0.04951,0.22538 0.266141,0.17101 0.425275,-0.10674 0.637202,0.23648 0.714369,1.15693 l 0.0673,0.80282 h -0.397344 c -0.218539,0 -0.579555,0.0761 -0.802255,0.16918 -0.46618,0.19478 -0.998889,0.1985 -1.878408,0.0131 z m 1.748222,-0.62302 c 0.460696,-0.16148 0.570346,-0.25146 0.59892,-0.49146 0.03059,-0.25691 -0.0049,-0.29265 -0.282513,-0.28476 -0.698094,0.0199 -0.766988,-0.0625 -0.773893,-0.92472 l -0.0063,-0.79083 h 0.485679 c 0.475337,0 0.485683,-0.008 0.485683,-0.3763 0,-0.36857 -0.0098,-0.3761 -0.475523,-0.36656 -0.465044,0.01 -0.477096,3.3e-4 -0.547025,-0.41838 -0.0686,-0.41075 -0.05224,-0.43941 0.403219,-0.70633 0.396825,-0.23255 0.465924,-0.32425 0.421092,-0.55878 -0.02948,-0.15432 -0.06665,-0.28058 -0.08254,-0.28058 -0.0159,0 -0.266403,0.10506 -0.556678,0.23346 -0.441975,0.19551 -0.610523,0.21581 -1.036859,0.12488 -0.45206,-0.0964 -0.500595,-0.0878 -0.433219,0.0767 0.438387,1.07056 0.61571,1.78324 0.61571,2.47462 0,0.68972 -0.138264,1.76776 -0.295862,2.3068 -0.0489,0.16726 0.01661,0.19605 0.429245,0.18864 0.267824,-0.005 0.740728,-0.0977 1.050896,-0.20641 z m 2.702256,0.10755 c -0.17211,-0.0697 -0.27925,-0.30285 -0.424397,-0.92335 -0.106789,-0.45653 -0.193512,-0.86798 -0.192717,-0.91433 8.88e-4,-0.0463 0.175479,-0.27689 0.388184,-0.51233 0.2127,-0.23544 0.42011,-0.56103 0.46089,-0.72354 0.0645,-0.25683 0.023,-0.31972 -0.31665,-0.48092 -0.9016,-0.42783 -1.139295,-1.16856 -0.644233,-2.00763 0.199673,-0.33841 0.391125,-0.46417 1.144853,-0.75199 0.49779,-0.19009 0.94892,-0.34562 1.0025,-0.34562 0.0536,0 0.22023,0.16495 0.37035,0.36656 0.35446,0.47604 0.50641,1.71435 0.24571,2.00242 -0.1519,0.16784 -0.1494,0.22913 0.0234,0.57311 0.28112,0.55977 0.32881,1.69248 0.0968,2.29991 -0.18648,0.4883 -0.38305,0.68783 -1.2245,1.24297 -0.45597,0.30082 -0.56738,0.32175 -0.93016,0.17474 z m 0.9353,-1.09915 c 0.4996,-0.36945 0.7048,-0.81304 0.7048,-1.52351 0,-0.77922 -0.15302,-1.29162 -0.45996,-1.54016 l -0.24735,-0.20029 0.27282,-0.27419 c 0.22933,-0.23049 0.26586,-0.36019 0.2292,-0.81383 -0.048,-0.59385 -0.0341,-0.59026 -0.89231,-0.2317 -0.41701,0.17424 -0.70701,0.68997 -0.70701,1.25734 0,0.27273 0.0893,0.37265 0.5635,0.63076 0.34091,0.18555 0.58842,0.40599 0.62659,0.55807 0.087,0.34673 -0.12369,0.85176 -0.53201,1.27514 -0.30766,0.31901 -0.33509,0.40368 -0.26505,0.8182 0.0839,0.49662 0.0941,0.49725 0.70678,0.0442 z m 3.00653,-0.59367 c -0.25388,-0.11299 -0.57102,-0.34455 -0.70476,-0.51457 -0.35833,-0.45554 -0.81952,-2.01771 -0.88156,-2.98607 -0.0463,-0.72232 -0.0198,-0.90046 0.18161,-1.21926 0.28669,-0.45391 0.8101,-0.68718 1.73373,-0.77267 0.59057,-0.0547 0.7236,-0.0324 0.87456,0.14601 0.20733,0.24512 0.44229,1.22302 0.44229,1.84084 0,0.36574 -0.0476,0.44858 -0.32328,0.56278 -0.60013,0.24858 -0.76422,0.98764 -0.18713,0.8428 0.79457,-0.19943 0.98854,1.2905 0.26787,2.05761 -0.29966,0.31898 -0.75145,0.33267 -1.40333,0.0425 z m 0.85635,-0.56814 c 0.12407,-0.12407 0.22558,-0.29756 0.22558,-0.38553 0,-0.088 0.0289,-0.23516 0.0641,-0.32707 0.045,-0.11714 -0.0574,-0.20723 -0.34236,-0.30126 -0.52454,-0.17312 -0.74363,-0.50802 -0.66497,-1.01646 0.0677,-0.4377 0.29577,-0.74769 0.62756,-0.85299 0.17983,-0.0571 0.20792,-0.1425 0.15857,-0.48224 -0.033,-0.22707 -0.0619,-0.55934 -0.0642,-0.73836 -0.004,-0.32248 -0.009,-0.32483 -0.53362,-0.25294 -0.64003,0.0877 -1.01888,0.41238 -1.12188,0.96139 -0.14532,0.77464 0.38888,3.01929 0.82152,3.45193 0.23376,0.23377 0.56181,0.21144 0.82972,-0.0565 z m 20.47465,4.73004 0.6732,-0.68382 -0.28197,-0.2242 c -0.15509,-0.1233 -1.2866,-1.12252 -2.51448,-2.22048 -1.22788,-1.09797 -2.39524,-2.08395 -2.59413,-2.19107 -0.1989,-0.10713 -0.53708,-0.41165 -0.75151,-0.67673 -0.21443,-0.26508 -0.56971,-0.64056 -0.78952,-0.83441 l -0.39964,-0.35245 -0.93051,0.33893 c -0.5706,0.20784 -0.9305,0.401 -0.9305,0.49939 0,0.1578 0.69497,0.84006 1.9174,1.88234 0.34119,0.2909 0.67109,0.57855 0.73313,0.63922 0.0927,0.0906 2.9769,2.7075 4.5602,4.13748 0.22137,0.19993 0.45483,0.36488 0.51881,0.36656 0.064,0.002 0.41926,-0.30467 0.78952,-0.68076 z m 4.37927,-1.80329 c 3.71253,-0.45495 5.82527,-0.74688 5.89262,-0.81423 0.031,-0.031 -0.14931,-0.68836 -0.40064,-1.46086 -0.25131,-0.7725 -0.45694,-1.51772 -0.45694,-1.65604 0,-0.1876 -0.0502,-0.23597 -0.19738,-0.1904 -0.10856,0.0336 -0.73031,0.13992 -1.38166,0.23627 -0.65135,0.0963 -2.47853,0.39811 -4.06039,0.67058 -1.58186,0.27247 -3.25676,0.55201 -3.72202,0.6212 -0.46525,0.0692 -1.09255,0.18896 -1.394,0.26616 l -0.54809,0.14035 0.88645,0.78519 c 0.48755,0.43186 0.91184,0.81173 0.94285,0.84416 0.031,0.0324 0.30791,0.27685 0.61531,0.54316 0.43582,0.37756 0.6186,0.46921 0.82996,0.41616 0.14908,-0.0374 1.49635,-0.21818 2.99393,-0.4017 z m -5.00314,-2.92245 c 0.89949,-0.11917 1.96534,-0.2939 2.36856,-0.38829 0.40322,-0.0944 2.09902,-0.40164 3.76845,-0.68277 1.66943,-0.28113 3.04812,-0.52409 3.06375,-0.53991 0.0156,-0.0158 -0.45337,-0.52792 -1.04222,-1.13801 l -1.07065,-1.10925 -2.21868,0.35922 c -1.22027,0.19757 -3.7815,0.60156 -5.69161,0.89775 -1.9101,0.29619 -3.49554,0.56115 -3.52318,0.58879 -0.0652,0.0652 2.44883,2.21818 2.59736,2.22441 0.062,0.003 0.84873,-0.0928 1.74822,-0.21194 z m -34.851652,-9.81338 c 0.403219,-0.0674 1.240674,-0.19462 1.86101,-0.28275 1.569412,-0.22298 7.782241,-1.14445 9.079482,-1.34664 0.58932,-0.0919 1.7313,-0.272215 2.53774,-0.400797 0.80644,-0.128582 2.03724,-0.317143 2.73512,-0.419024 0.9219,-0.134588 1.26887,-0.228276 1.26887,-0.342623 0,-0.219238 -0.58812,-2.547331 -1.21174,-4.796713 -0.39147,-1.412016 -0.56811,-1.888992 -0.69931,-1.888355 -0.0965,4.89e-4 -1.46979,0.204721 -3.05165,0.453894 -1.58185,0.249172 -4.373372,0.680638 -6.203366,0.958811 -1.829993,0.278173 -4.418489,0.680224 -5.752214,0.893446 -1.333723,0.213221 -3.754208,0.578668 -5.378852,0.812104 l -2.953901,0.424428 0.69691,0.624989 c 1.793628,1.608524 4.384353,3.99855 5.098102,4.70316 0.516532,0.50992 0.867516,0.77062 1.015097,0.754 0.124067,-0.014 0.555483,-0.0805 0.958702,-0.14793 z m -2.594136,77.2695 c -1.402813,-0.45354 -2.446449,-1.22162 -4.69008,-3.45177 -1.717413,-1.70709 -2.953838,-3.52658 -2.974588,-4.37732 -0.0076,-0.31378 -0.284755,-0.78192 -0.855856,-1.44589 -0.596653,-0.69368 -1.125467,-1.66949 -1.281799,-2.36527 -0.186165,-0.82856 0.577788,-5.89236 1.022665,-6.77867 0.09517,-0.1896 -0.09514,-0.62808 -0.67602,-1.55753 -0.135691,-0.21712 -0.331532,-0.66122 -0.435203,-0.9869 -0.103671,-0.32568 -0.242665,-0.59027 -0.308879,-0.588 -0.06621,0.002 -0.474799,0.0727 -0.907968,0.15645 -0.680988,0.13168 -0.837023,0.20949 -1.152893,0.57489 -0.200921,0.23244 -0.531563,0.7584 -0.734758,1.16883 -0.446234,0.90132 -2.660498,3.24692 -2.957519,3.13295 -0.374771,-0.14381 -0.151334,-0.5331 0.927977,-1.61679 0.845813,-0.84924 1.203349,-1.30604 1.529552,-1.95422 0.726406,-1.4434 1.038061,-1.69564 2.442095,-1.97652 0.527287,-0.10548 1.263232,-0.30224 1.635434,-0.43725 0.689995,-0.25027 2.086587,-1.12287 2.086587,-1.30371 0,-0.12258 0.779052,-0.39097 0.870227,-0.2998 0.03607,0.0361 -0.07897,0.2742 -0.255668,0.52917 -0.373829,0.53944 -1.566711,1.42758 -2.124134,1.58149 -0.211962,0.0585 -0.409762,0.16993 -0.439555,0.24757 -0.07973,0.20778 0.322186,1.42606 0.589943,1.78822 0.127216,0.17207 0.231302,0.37744 0.231302,0.45639 0,0.0789 0.128716,-0.0459 0.286037,-0.27741 0.222234,-0.32704 0.360606,-0.42094 0.620337,-0.42094 0.372932,0 0.450665,0.24744 0.174375,0.55506 -0.461366,0.5137 -1.079101,2.63807 -1.314465,4.52043 -0.06593,0.52728 -0.169549,1.31398 -0.230262,1.74822 -0.247959,1.77343 -0.03168,2.60619 0.999071,3.84686 0.792856,0.95432 0.91533,1.17077 1.042798,1.8429 0.250587,1.32134 2.539056,4.08605 5.099045,6.16018 1.970857,1.59681 2.975032,1.69097 3.744884,0.35116 0.594869,-1.03527 0.592357,-2.49507 -0.0076,-4.41869 -0.154782,-0.49627 -0.295484,-1.05458 -0.312669,-1.24068 -0.01718,-0.1861 -0.03847,-0.39203 -0.04731,-0.45762 -0.0088,-0.0656 -0.538621,-0.64927 -1.177304,-1.29707 -1.628264,-1.6515 -1.924007,-2.10975 -1.978693,-3.06596 -0.04085,-0.71428 -0.02736,-0.76637 0.222963,-0.86097 0.146544,-0.0554 0.27933,-0.0895 0.295081,-0.0758 0.01575,0.0137 0.07922,0.42381 0.141032,0.91137 0.135975,1.07246 0.306315,1.34682 1.815748,2.92447 1.167237,1.22 1.341841,1.4689 1.341841,1.91283 0,0.15842 0.148102,0.75812 0.329114,1.33268 0.367986,1.16802 0.610961,2.77524 0.50855,3.36392 -0.134656,0.77404 -0.523722,1.56774 -0.96305,1.96465 -0.375997,0.33969 -0.516262,0.39592 -0.974626,0.39073 -0.294482,-0.004 -0.814572,-0.0963 -1.155758,-0.20663 z M 65.038178,168.67131 c -0.155084,-0.0887 -0.398344,-0.16299 -0.540577,-0.16519 -0.419398,-0.006 -1.335614,-0.94959 -1.550228,-1.59573 -0.246398,-0.74184 -0.24631,-2.14953 2.25e-4,-2.80702 0.11034,-0.29433 0.231347,-1.10666 0.288046,-1.93368 0.05378,-0.78438 0.171029,-1.59646 0.260564,-1.80462 0.08953,-0.20817 0.472955,-0.74334 0.852048,-1.18928 0.379092,-0.44594 0.87488,-1.18189 1.101749,-1.63543 0.503257,-1.00609 0.995261,-1.62369 1.765913,-2.21672 0.322097,-0.24785 0.864781,-0.7068 1.205967,-1.01989 0.341185,-0.31309 0.657371,-0.57098 0.702636,-0.57309 0.108679,-0.005 0.485099,-0.76287 0.585097,-1.17793 0.09933,-0.41229 0.994402,-1.46973 1.573304,-1.8587 0.241036,-0.16195 0.91516,-0.54824 1.498056,-0.8584 1.736672,-0.92412 2.720955,-1.87241 2.487206,-2.39626 -0.07574,-0.16975 -0.05412,-0.54824 0.06994,-1.22382 0.178768,-0.97358 0.178344,-0.98102 -0.09227,-1.62396 -0.149522,-0.35525 -0.401079,-0.88894 -0.559018,-1.18598 -0.157989,-0.29704 -0.287211,-0.6802 -0.287211,-0.85146 v -0.31138 l -0.59214,0.28285 c -0.363286,0.17353 -1.006255,0.68417 -1.66363,1.32124 -1.166579,1.13055 -2.067312,1.64188 -2.962182,1.68159 -0.439131,0.0195 -0.477868,-0.001 -0.477868,-0.25833 0,-0.24478 0.07013,-0.29399 0.563943,-0.39566 0.900805,-0.18546 1.636174,-0.64825 2.598514,-1.63531 0.616858,-0.6327 1.143764,-1.05073 1.683291,-1.33544 0.620427,-0.3274 0.846995,-0.521 1.078849,-0.92186 0.294195,-0.50864 0.673531,-0.73792 0.673531,-0.40709 0,0.0954 -0.08095,0.41194 -0.179885,0.70335 -0.212602,0.6262 -0.141019,1.5021 0.170442,2.08552 0.111987,0.20978 0.359996,0.73849 0.551133,1.17492 0.309387,0.70643 0.33541,0.8474 0.237157,1.2847 -0.151078,0.6724 -0.09313,0.75714 0.296924,0.43422 0.584768,-0.48411 1.702506,-1.01813 1.959978,-0.93641 0.408434,0.12963 0.257263,0.38336 -0.4373,0.73397 -0.870169,0.43926 -1.364799,0.94394 -1.808509,1.84524 -0.427508,0.86839 -1.176391,1.52614 -2.467562,2.16727 -1.834695,0.91101 -2.990427,1.98658 -3.291985,3.06364 -0.07601,0.27148 -0.271543,0.63077 -0.434516,0.7984 -0.39204,0.40326 -2.102915,1.84176 -2.426873,2.04051 -0.140457,0.0862 -0.34724,0.32725 -0.45952,0.53574 -0.112279,0.20849 -0.242944,0.37908 -0.290367,0.37908 -0.04742,0 -0.264398,0.37537 -0.482168,0.83416 -0.21777,0.45879 -0.692279,1.18205 -1.054465,1.60724 -0.362187,0.42519 -0.737943,0.89996 -0.835013,1.05504 -0.272861,0.43594 -0.439111,1.25871 -0.439111,2.17317 0,0.60193 -0.08035,1.06464 -0.289999,1.67008 -0.241795,0.69827 -0.282824,0.98888 -0.246828,1.74834 0.0441,0.93042 0.314028,1.69416 0.656571,1.8577 0.451774,0.2157 1.004288,0.37204 1.471169,0.41627 0.694544,0.0658 1.852529,-0.50384 2.347192,-1.15464 0.842055,-1.10784 1.080977,-1.4977 1.424301,-2.32408 0.460528,-1.1085 0.932469,-1.8519 1.278495,-2.01389 0.147592,-0.0691 0.292876,-0.1011 0.322854,-0.0711 0.08045,0.0805 -0.282813,1.0907 -0.46676,1.29805 -0.08711,0.0982 -0.296102,0.50844 -0.464437,0.91166 -0.524587,1.25658 -0.8102,1.74665 -1.46493,2.51361 -0.489063,0.5729 -0.802518,0.82139 -1.372698,1.08821 -0.818648,0.38309 -1.590467,0.44903 -2.067045,0.1766 z m -4.97302,-17.76972 c -0.211439,-0.10887 -0.493325,-0.34595 -0.626414,-0.52684 -0.50002,-0.67963 -1.162365,-2.74231 -1.166209,-3.63181 -9.32e-4,-0.21217 0.14857,-0.71972 0.332194,-1.12789 0.183624,-0.40817 0.487881,-1.15058 0.676127,-1.6498 0.522245,-1.38498 1.277525,-2.44514 2.487117,-3.49107 0.573921,-0.49627 1.379551,-1.24961 1.790287,-1.67408 0.66521,-0.68745 2.269797,-1.91527 2.720592,-2.08177 0.09305,-0.0344 0.346825,-0.17298 0.563943,-0.30803 0.411519,-0.25598 3.0022,-0.95521 3.539073,-0.95521 0.515144,0 1.285776,-0.23652 1.483887,-0.45543 0.174396,-0.19271 0.17297,-0.22581 -0.02125,-0.49302 -0.251516,-0.34604 -0.811825,-0.5674 -2.012814,-0.7952 -2.013324,-0.38189 -2.247968,-0.44883 -2.750259,-0.78452 -0.286334,-0.19137 -0.596741,-0.51179 -0.689791,-0.71206 -0.199035,-0.42837 -0.316165,-0.44304 -1.439619,-0.18028 -0.842208,0.19699 -1.117402,0.13971 -0.985115,-0.20501 0.07823,-0.20386 0.564036,-0.38183 1.486534,-0.54458 0.600586,-0.10595 0.818506,-0.0912 1.572085,0.10614 0.481167,0.12603 1.053809,0.22915 1.272536,0.22915 0.378169,0 0.388037,0.01 0.201062,0.19663 -0.209555,0.20955 -1.037847,0.25977 -1.515343,0.0919 -0.197267,-0.0694 -0.253775,-0.0474 -0.253775,0.0985 0,0.35768 0.52167,0.69134 1.317809,0.84286 2.103089,0.40027 2.500159,0.48573 2.9893,0.64339 0.336138,0.10833 0.674934,0.33226 0.930212,0.61483 0.220835,0.24444 0.465094,0.44397 0.542797,0.4434 0.0777,-4.5e-4 0.387008,-0.12003 0.687345,-0.26548 0.469817,-0.22753 0.619431,-0.24991 1.071491,-0.16029 0.288983,0.0573 0.639587,0.11331 0.779119,0.1245 0.270921,0.0217 0.347266,0.24885 0.112869,0.3358 -0.07754,0.0288 -0.369383,0.028 -0.648534,-0.002 -0.404269,-0.043 -0.610828,0.005 -1.015097,0.23772 -0.279152,0.16045 -0.594584,0.29234 -0.70096,0.29308 -0.106377,8.9e-4 -0.245013,0.0978 -0.308082,0.21563 -0.138433,0.25866 -1.015223,0.57525 -1.593153,0.57525 -0.73319,0 -2.93638,0.62604 -3.657567,1.03929 -1.269213,0.72729 -2.369143,1.54123 -3.046002,2.25403 -0.37181,0.39155 -1.170873,1.13778 -1.775695,1.6583 -1.313927,1.13078 -2.042196,2.15546 -2.452831,3.45113 -0.07864,0.24813 -0.347173,0.93258 -0.596739,1.52099 l -0.453757,1.06983 0.13437,0.79968 c 0.140768,0.83776 0.681024,2.41719 0.929036,2.71603 0.122713,0.14786 0.344119,0.1626 1.447475,0.0964 1.451008,-0.0871 1.705734,-0.18611 2.165365,-0.84158 0.249617,-0.35598 0.428936,-0.46567 1.089001,-0.66616 0.943706,-0.28664 0.924343,-0.28527 0.924343,-0.0651 0,0.097 -0.188421,0.25 -0.422957,0.34342 -0.782009,0.31151 -0.934412,0.42287 -1.24014,0.90612 -0.411112,0.64983 -0.838401,0.81106 -2.294828,0.86592 -0.979734,0.0369 -1.263752,0.009 -1.579038,-0.15294 z m 5.687955,-2.42616 c -0.04021,-0.10478 0.04997,-0.29862 0.222988,-0.47935 0.361029,-0.37712 0.792039,-1.3322 1.231272,-2.72839 0.527961,-1.67823 0.828747,-2.14298 1.386946,-2.14298 0.158302,0 0.141339,0.0785 -0.109521,0.50651 -0.16326,0.27858 -0.465379,1.0526 -0.671376,1.72002 -0.453226,1.46846 -0.949302,2.57232 -1.34368,2.98994 -0.326832,0.34609 -0.614647,0.40001 -0.716629,0.13425 z m 23.211832,-1.10235 c -0.06864,-0.0827 -0.254785,-0.60295 -0.413646,-1.15609 -0.158861,-0.55313 -0.502262,-1.43425 -0.763114,-1.95805 -0.260852,-0.52379 -0.491194,-0.99327 -0.511871,-1.04329 -0.02068,-0.05 0.04018,-0.0909 0.135246,-0.0909 0.394177,0 1.200544,1.46893 1.749835,3.18762 0.19354,0.60557 0.351891,1.12581 0.351891,1.15608 0,0.12063 -0.431352,0.0456 -0.548341,-0.0953 z m 3.689918,-11.92048 c -0.245237,-0.14319 -0.633877,-0.8097 -0.575046,-0.98619 0.09061,-0.27183 0.458738,-0.13537 0.689391,0.25555 0.128103,0.21712 0.280883,0.39476 0.339511,0.39476 0.05863,0 0.529823,-0.18364 1.047098,-0.40808 1.161938,-0.50417 1.673625,-0.63897 1.673625,-0.44094 0,0.17482 -0.671372,0.61777 -1.353462,0.89298 -0.279152,0.11263 -0.59568,0.25032 -0.703398,0.30599 -0.255019,0.13179 -0.881421,0.1239 -1.117719,-0.0141 z m -3.713901,-1.0408 c -0.0046,-0.0155 -0.02997,-0.1444 -0.05636,-0.28641 -0.09377,-0.50462 -0.494974,-1.12687 -0.868751,-1.34741 -0.696937,-0.4112 -1.072479,-1.78487 -0.752785,-2.75355 0.26787,-0.81166 0.895003,-0.83122 0.726829,-0.0227 -0.247757,1.19116 0.02865,2.23586 0.695709,2.62943 0.516999,0.30504 0.758778,1.04371 0.533646,1.6304 -0.05671,0.14778 -0.248272,0.25118 -0.278285,0.15021 z m -33.207836,-0.31583 c -0.403007,-0.1227 -1.046875,-0.70443 -1.186693,-1.07218 -0.05489,-0.14437 -0.13378,-0.96333 -0.175312,-1.8199 -0.07435,-1.5334 -0.07095,-1.56593 0.220289,-2.10996 0.162691,-0.3039 0.297489,-0.65918 0.299549,-0.78952 0.0097,-0.61521 1.130392,-1.63056 1.812236,-1.64194 0.579241,-0.01 0.998626,-0.24968 1.406072,-0.80473 0.709465,-0.96649 1.160964,-0.62823 0.497809,0.37295 -0.343228,0.51819 -0.627354,0.69123 -1.351305,0.82301 -0.969884,0.17655 -1.466033,0.60802 -1.734729,1.5086 -0.08537,0.28613 -0.263958,0.70386 -0.396864,0.92828 -0.213346,0.36025 -0.234805,0.52537 -0.183221,1.40986 0.11117,1.90617 0.172528,2.24554 0.462548,2.55831 0.236739,0.25532 0.343049,0.28767 0.808645,0.2461 0.29484,-0.0263 0.976053,-0.0719 1.513807,-0.10138 0.832557,-0.0456 1.07539,-0.1075 1.635433,-0.41713 0.361735,-0.19999 0.860719,-0.52476 1.108854,-0.72173 0.248135,-0.19695 0.559209,-0.41525 0.691275,-0.48509 0.481819,-0.2548 2.410409,0.0137 2.410409,0.3356 0,0.0521 -0.450962,0.0947 -1.00214,0.0947 h -1.002139 l -0.605097,0.49378 c -0.332803,0.27157 -0.92036,0.65637 -1.305682,0.85508 -0.662559,0.34169 -0.778877,0.36345 -2.142982,0.40081 -0.793318,0.0217 -1.594661,-0.007 -1.780762,-0.0635 z m 47.752574,-3.8859 c -0.43864,-0.23837 -0.88361,-1.29672 -0.54519,-1.29672 0.13751,0 0.67134,0.55121 0.67134,0.6932 0,0.053 0.10336,0.19968 0.22969,0.32601 0.12633,0.12633 0.19947,0.2786 0.16253,0.33837 -0.0874,0.14143 -0.16233,0.13263 -0.51837,-0.0609 z m -1.34832,-2.32253 c -0.005,-0.0251 -0.0306,-0.39409 -0.0579,-0.81992 -0.0315,-0.49107 -0.12395,-0.88296 -0.25273,-1.07149 -0.11167,-0.16349 -0.2699,-0.50848 -0.35161,-0.76665 -0.13717,-0.43337 -0.12954,-0.49612 0.0994,-0.81771 0.28149,-0.39532 0.33071,-0.41005 0.63257,-0.18933 0.20906,0.15287 0.20968,0.16757 0.0161,0.3815 -0.2386,0.26366 -0.18239,0.60204 0.23368,1.40657 0.22453,0.43417 0.26364,0.6318 0.20388,1.03031 -0.0407,0.2712 -0.17322,0.58294 -0.29456,0.69275 -0.12134,0.10981 -0.22432,0.17909 -0.22884,0.15397 z m 35.00346,-11.80056 c -0.10999,-0.16876 -0.39031,-0.4792 -0.62294,-0.68985 -0.41126,-0.37242 -0.53798,-0.72352 -0.31163,-0.86341 0.0612,-0.0378 0.22618,0.0406 0.36656,0.17432 0.14038,0.13372 0.37407,0.32282 0.5193,0.42022 0.14523,0.0974 0.30893,0.29512 0.36377,0.43937 0.1919,0.50473 1.18003,0.27701 1.99572,-0.45991 0.52495,-0.47427 0.59107,-0.49402 0.50867,-0.15195 -0.15444,0.64111 -1.36908,1.43478 -2.19912,1.43696 -0.33392,8.8e-4 -0.46147,-0.062 -0.62033,-0.30575 z m 3.31486,-1.57336 c -0.18071,-0.18071 0.61467,-1.04181 0.9685,-1.04854 0.29461,-0.006 0.2455,0.10786 -0.27726,0.64051 -0.48634,0.49555 -0.56015,0.53912 -0.69124,0.40803 z m 1.6915,-0.79483 c -0.12739,-0.86655 -0.12833,-0.96864 -0.009,-1.01029 0.31175,-0.10909 0.51786,1.06692 0.22901,1.30665 -0.12825,0.10643 -0.16847,0.0522 -0.2197,-0.29636 z"
       id="path896" />
  </g>
</svg>
